<mxfile host="app.diagrams.net" agent="Mozilla/5.0 (Windows NT 10.0; Win64; x64) AppleWebKit/537.36 (KHTML, like Gecko) Chrome/130.0.0.0 Safari/537.36 Edg/130.0.0.0" version="24.8.3">
  <diagram name="Page-1" id="4s_9EsLTneJLEkzUOXvc">
    <mxGraphModel dx="1324" dy="511" grid="1" gridSize="10" guides="1" tooltips="1" connect="1" arrows="1" fold="1" page="1" pageScale="1" pageWidth="850" pageHeight="1100" math="0" shadow="0">
      <root>
        <mxCell id="0" />
        <mxCell id="1" parent="0" />
        <mxCell id="oYpV2JoU3pS1at7vXn3L-1" value="Create New Data Base" style="shape=process;whiteSpace=wrap;html=1;backgroundOutline=1;" vertex="1" parent="1">
          <mxGeometry x="520" y="430" width="120" height="60" as="geometry" />
        </mxCell>
        <mxCell id="oYpV2JoU3pS1at7vXn3L-5" value="" style="edgeStyle=orthogonalEdgeStyle;rounded=0;orthogonalLoop=1;jettySize=auto;html=1;entryX=0.5;entryY=0;entryDx=0;entryDy=0;" edge="1" parent="1">
          <mxGeometry relative="1" as="geometry">
            <mxPoint x="410" y="160" as="sourcePoint" />
            <mxPoint x="410" y="190" as="targetPoint" />
          </mxGeometry>
        </mxCell>
        <mxCell id="oYpV2JoU3pS1at7vXn3L-12" value="" style="edgeStyle=orthogonalEdgeStyle;rounded=0;orthogonalLoop=1;jettySize=auto;html=1;" edge="1" parent="1" source="oYpV2JoU3pS1at7vXn3L-8" target="oYpV2JoU3pS1at7vXn3L-11">
          <mxGeometry relative="1" as="geometry" />
        </mxCell>
        <mxCell id="oYpV2JoU3pS1at7vXn3L-8" value="Input Choice" style="shape=parallelogram;perimeter=parallelogramPerimeter;whiteSpace=wrap;html=1;fixedSize=1;" vertex="1" parent="1">
          <mxGeometry x="340" y="290" width="120" height="60" as="geometry" />
        </mxCell>
        <mxCell id="oYpV2JoU3pS1at7vXn3L-13" value="" style="edgeStyle=orthogonalEdgeStyle;rounded=0;orthogonalLoop=1;jettySize=auto;html=1;" edge="1" parent="1" source="oYpV2JoU3pS1at7vXn3L-11" target="oYpV2JoU3pS1at7vXn3L-1">
          <mxGeometry relative="1" as="geometry" />
        </mxCell>
        <mxCell id="oYpV2JoU3pS1at7vXn3L-15" value="" style="edgeStyle=orthogonalEdgeStyle;rounded=0;orthogonalLoop=1;jettySize=auto;html=1;" edge="1" parent="1" source="oYpV2JoU3pS1at7vXn3L-11" target="oYpV2JoU3pS1at7vXn3L-14">
          <mxGeometry relative="1" as="geometry" />
        </mxCell>
        <mxCell id="oYpV2JoU3pS1at7vXn3L-11" value="if choice = 1" style="rhombus;whiteSpace=wrap;html=1;" vertex="1" parent="1">
          <mxGeometry x="360" y="420" width="80" height="80" as="geometry" />
        </mxCell>
        <mxCell id="oYpV2JoU3pS1at7vXn3L-17" value="" style="edgeStyle=orthogonalEdgeStyle;rounded=0;orthogonalLoop=1;jettySize=auto;html=1;" edge="1" parent="1" source="oYpV2JoU3pS1at7vXn3L-14" target="oYpV2JoU3pS1at7vXn3L-16">
          <mxGeometry relative="1" as="geometry" />
        </mxCell>
        <mxCell id="oYpV2JoU3pS1at7vXn3L-21" value="" style="edgeStyle=orthogonalEdgeStyle;rounded=0;orthogonalLoop=1;jettySize=auto;html=1;" edge="1" parent="1" source="oYpV2JoU3pS1at7vXn3L-14" target="oYpV2JoU3pS1at7vXn3L-20">
          <mxGeometry relative="1" as="geometry" />
        </mxCell>
        <mxCell id="oYpV2JoU3pS1at7vXn3L-14" value="if choice = 2" style="rhombus;whiteSpace=wrap;html=1;" vertex="1" parent="1">
          <mxGeometry x="360" y="580" width="80" height="80" as="geometry" />
        </mxCell>
        <mxCell id="oYpV2JoU3pS1at7vXn3L-16" value="One DATA BASE" style="shape=process;whiteSpace=wrap;html=1;backgroundOutline=1;" vertex="1" parent="1">
          <mxGeometry x="520" y="590" width="120" height="60" as="geometry" />
        </mxCell>
        <mxCell id="oYpV2JoU3pS1at7vXn3L-20" value="END" style="ellipse;whiteSpace=wrap;html=1;" vertex="1" parent="1">
          <mxGeometry x="340" y="700" width="120" height="80" as="geometry" />
        </mxCell>
        <mxCell id="oYpV2JoU3pS1at7vXn3L-23" value="" style="edgeStyle=orthogonalEdgeStyle;rounded=0;orthogonalLoop=1;jettySize=auto;html=1;" edge="1" parent="1" source="oYpV2JoU3pS1at7vXn3L-22" target="oYpV2JoU3pS1at7vXn3L-8">
          <mxGeometry relative="1" as="geometry" />
        </mxCell>
        <mxCell id="oYpV2JoU3pS1at7vXn3L-22" value="Start" style="ellipse;whiteSpace=wrap;html=1;" vertex="1" parent="1">
          <mxGeometry x="340" y="140" width="120" height="80" as="geometry" />
        </mxCell>
      </root>
    </mxGraphModel>
  </diagram>
</mxfile>
